<?xml version="1.0" encoding="UTF-8"?><!DOCTYPE svg PUBLIC "-//W3C//DTD SVG 1.1//EN" "http://www.w3.org/Graphics/SVG/1.1/DTD/svg11.dtd">
<svg xmlns="http://www.w3.org/2000/svg">
    <symbol id="icon-edit" viewBox="0 0 13 13">
        <title>Edit Icon</title>
        <desc>Icon to indicate as editable</desc>
        <path fill="" d="M12.085 9.709l-.103-.104-6.714-6.801-.394-.387-.105-.105-.208-.208-3.987-1.086-.465-.123-.016-.004-.002.008h-.006l.004.017.123.462 1.104 3.933.706.698 6.714 6.803.105.103 3.244-3.206zm-10.513-7.125l.254-.252 2.008.559-1.697 1.676-.565-1.982z"></path>
    </symbol>
    <symbol id="icon-arrow" viewBox="0 0 14 12">
        <title>Page Icon</title>
        <desc>Indicates paging</desc>
        <g transform="translate(-690.000000, -119.000000)" fill="">
            <path d="M698.503906,130.13623 L702.878906,125.76123 C702.951823,125.670084 703.011067,125.569825 703.056641,125.460449 C703.102214,125.351074 703.125,125.2417 703.125,125.132324 C703.125,125.022949 703.102214,124.913575 703.056641,124.804199 C703.011067,124.694824 702.951823,124.594564 702.878906,124.503418 L698.503906,120.128418 C698.41276,120.055501 698.312501,119.996257 698.203125,119.950684 C698.093749,119.90511 697.984376,119.882324 697.875,119.882324 C697.765624,119.882324 697.656251,119.90511 697.546875,119.950684 C697.437499,119.996257 697.33724,120.055501 697.246094,120.128418 C697.173177,120.219564 697.113933,120.319824 697.068359,120.429199 C697.022786,120.538575 697,120.647949 697,120.757324 C697,120.8667 697.022786,120.976074 697.068359,121.085449 C697.113933,121.194825 697.173177,121.295084 697.246094,121.38623 L700.144531,124.257324 L691.75,124.257324 C691.622395,124.257324 691.508464,124.28011 691.408203,124.325684 C691.307942,124.371257 691.21224,124.430501 691.121094,124.503418 C691.048177,124.594564 690.988933,124.690266 690.943359,124.790527 C690.897786,124.890788 690.875,125.004719 690.875,125.132324 C690.875,125.259929 690.897786,125.37386 690.943359,125.474121 C690.988933,125.574382 691.048177,125.670084 691.121094,125.76123 C691.21224,125.834148 691.307942,125.893392 691.408203,125.938965 C691.508464,125.984538 691.622395,126.007324 691.75,126.007324 L700.144531,126.007324 L697.246094,128.878418 C697.173177,128.969564 697.113933,129.069824 697.068359,129.179199 C697.022786,129.288575 697,129.397949 697,129.507324 C697,129.6167 697.022786,129.726074 697.068359,129.835449 C697.113933,129.944825 697.173177,130.045084 697.246094,130.13623 C697.33724,130.209148 697.437499,130.268392 697.546875,130.313965 C697.656251,130.359538 697.765624,130.382324 697.875,130.382324 C697.984376,130.382324 698.093749,130.359538 698.203125,130.313965 C698.312501,130.268392 698.41276,130.209148 698.503906,130.13623 L698.503906,130.13623 Z" id="arrow"></path>
        </g>
    </symbol>
    <symbol id="icon-copy" viewBox="0 0 14 14">
        <title>Duplicate Icon</title>
        <desc>Copy symbol</desc>
        <g fill="">
            <path d="M10,2 L10,0 L0,0 L0,10 L2,10 L2,2 L10,2 Z"></path>
            <rect x="4" y="4" width="10" height="10"></rect>
        </g>
    </symbol>
    <symbol id="icon-ok" viewBox="0 0 10 8">
        <title>Check Icon</title>
        <desc>Indicates validity; also used as checkbox mark</desc>
        <g transform="translate(-3.000000, -4.000000)">
            <path d="M5.95760146,11.3033359 L6.77247548,12 L7.49118506,11.2201805 L13,5.24296628 L11.3800451,4 L5.8712302,9.97721425 L7.4048138,9.89405886 L4.44721234,7.36550273 L3,8.77477979 L5.95760146,11.3033359 Z"></path>
        </g>
    </symbol>
    <symbol id="icon-alert" viewBox="0 0 2 10">
        <title>Alert Icon</title>
        <desc>Demands attention, like an invalid input</desc>
        <g fill="">
            <path d="M0 1h2v6h-2z"/><path d="M0 8h2v2h-2z"/>
        </g>
    </symbol>
    <symbol id="icon-asterisk" viewBox="0 0 8 8">
        <title>Required Icon</title>
        <desc>Indicated required field</desc>
        <path d="M5.017 2.252v-2.252h-2.034v2.252l-1.966-1.126-1.017 1.748 1.966 1.126-1.966 1.126 1.017 1.748 1.966-1.126v2.252h2.034v-2.252l1.966 1.126 1.017-1.748-1.966-1.126 1.966-1.126-1.017-1.748-1.966 1.126z"
              fill=""/>
    </symbol>
    <symbol id="icon-search" viewBox="0 0 16 16">
        <title>Required Icon</title>
        <desc>Indicated required field</desc>
        <path d="M6.651 13.301c-3.673 0-6.651-2.978-6.651-6.65 0-3.673 2.978-6.65 6.651-6.65v2.046c-2.543 0-4.604 2.061-4.604 4.604 0 2.542 2.062 4.604 4.604 4.604 2.543 0 4.604-2.061 4.604-4.604s-2.061-4.604-4.604-4.604v-2.046c3.674 0 6.651 2.977 6.651 6.65 0 1.467-.475 2.824-1.28 3.923l3.979 3.979-1.447 1.447-3.979-3.979c-1.1.805-2.456 1.28-3.924 1.28z" fill=""></path>
    </symbol>
    <symbol id="icon-search-alt" viewBox="0 0 29 30">
        <title>Search Icon - Alternate</title>
        <desc>Indicated required field</desc>
        <g id="Search" stroke="" stroke-width="1" fill="" fill-rule="evenodd">
            <g id="search-bar" transform="translate(-389.000000, -398.000000)" stroke-width="2" stroke="">
                <g id="Group-5" transform="translate(384.000000, 394.000000)">
                    <g id="Group-3">
                        <g id="Group">
                            <g id="mag-glass-2" transform="translate(20.859650, 20.859650) rotate(-45.000000) translate(-20.859650, -20.859650) translate(8.859650, 3.359650)">
                                <g id="search" transform="translate(0.656854, 0.343146)">
                                    <path d="M4.21677477,19.6839459 C6.20738324,21.6788677 8.95738324,22.9127525 11.9949494,22.9127525 C18.0700816,22.9127525 22.9949494,17.9772133 22.9949494,11.8889172 C22.9949494,5.80062105 18.0700816,0.865081857 11.9949494,0.865081857 C5.91981712,0.865081857 0.994949366,5.80062105 0.994949366,11.8889172 C0.994949366,14.9330652 2.2261663,17.6890241 4.21677477,19.6839459 Z" id="Oval-100"></path>
                                    <path d="M11.587542,23.7922824 L11.587542,33.1784304" id="Line" stroke-linecap="square"></path>
                                </g>
                            </g>
                        </g>
                    </g>
                </g>
            </g>
        </g>
    </symbol>
    <symbol id="icon-remove" viewBox="0 0 12 12">
        <title>Remove Icon</title>
        <desc>Indicates Remove/Delete functionality</desc>
        <path d="M6 4l4-4 2 2-4 4 4 4-2 2-4-4-4 4-2-2 4-4-4-4 2-2 4 4z" fill=""></path>
    </symbol>
    <symbol id="icon-minus" viewBox="0 0 14 3">
        <title>
            Minus icon
        </title>
        <desc>
            A dash.
        </desc>
        <path d="M0 0h14v3H0V0z" fill="" fill-rule="evenodd"/>
    </symbol>
    <symbol id="icon-pin" viewBox="0 0 35 27">
        <title>Pin Icon</title>
        <desc>Used for Pulse Points</desc>
        <g transform="translate(17.740234, 13.264862) rotate(-90.000000) translate(-17.740234, -13.264862) translate(-0.259766, -0.735138)" fill="">
            <path d="M22.2175071,27.2648619 C30.2963423,27.2648619 35.7402344,21.220706 35.7402344,13.7648619 C35.7402344,6.30901777 30.2963423,0.264861891 22.2175071,0.264861891 C11.9061168,0.264861891 0.740234375,13.7648619 0.740234375,13.7648619 C0.740234375,13.7648619 12.3566673,27.2648619 22.2175071,27.2648619 Z" fill-opacity="0.4"></path>
            <circle cx="22.7402344" cy="14" r="6"></circle>
        </g>
    </symbol>

    <symbol id="icon-core" viewBox="0 0 44 46">
        <title>TM ONE</title>
        <desc>Ticketmaster ONE logo</desc>
            <path d="M10.0903861,24.7973047 C9.80573319,24.8937552 9.53633361,24.966092 9.28217925,25.0143172 C9.02802488,25.0625425 8.78912337,25.0962997 8.56546753,25.1155898 C8.36214404,25.15417 8.15882359,25.1734598 7.9555001,25.1734598 L7.34553268,25.1734598 C6.47124167,25.1734598 5.67320894,25.0770107 4.95141055,24.8841097 C4.22961216,24.6912087 3.61456782,24.4018614 3.1062591,24.0160594 C2.59795037,23.6302573 2.20147551,23.1335445 1.91682262,22.5259063 C1.63216974,21.918268 1.48984543,21.1997224 1.48984543,20.3702479 C1.48984543,19.9844459 1.51526048,19.6082945 1.56609136,19.2417825 C1.61692223,18.8752705 1.67283535,18.508764 1.7338324,18.1422521 C1.81516179,17.7757401 1.90157298,17.4044112 1.99306855,17.0282541 C2.08456412,16.6520971 2.18114133,16.2807682 2.28280308,15.9142562 L3.83822,9.60642374 L-0.0655714979,9.60642374 L0.727386151,5.9027423 L4.23469883,5.9027423 L5.02765648,1.85184072 L10.4868649,0 L9.29742843,5.9027423 L13.9941776,5.9027423 L13.2012199,9.60642374 L8.53496916,9.60642374 L6.5830734,17.7660969 C6.5830734,17.8625474 6.56274136,17.9782863 6.52207666,18.1133171 C6.48141196,18.2483478 6.43058185,18.3930214 6.36958481,18.5473422 C6.32892011,18.7209532 6.28825602,18.8945615 6.24759132,19.0681724 C6.20692662,19.2417834 6.18659458,19.4250366 6.18659458,19.6179376 C6.18659458,19.8879991 6.23234168,20.1387667 6.32383725,20.3702479 C6.41533282,20.6017292 6.55257412,20.7946273 6.73556526,20.9489482 C6.89822405,21.1225591 7.10154449,21.2527653 7.34553268,21.3395708 C7.58952087,21.4263763 7.85383744,21.4697784 8.13849033,21.4697784 L8.77895612,21.4697784 C9.00261196,21.4697784 9.22626445,21.4504885 9.44992029,21.4119083 C9.67357613,21.3926182 9.87689657,21.3588611 10.0598877,21.3106358 C10.2428789,21.2624105 10.3852032,21.1900737 10.4868649,21.0936232 L10.0903861,24.7973047 Z M42.876135,15.9142562 L40.9242393,24.7973047 L35.8615097,24.7973047 L37.8134054,15.5381011 C37.9150672,15.2680396 38.0116444,14.9545801 38.1031399,14.5977132 C38.1946355,14.2408463 38.2708807,13.8791622 38.3318777,13.5126503 C38.4132071,13.1461383 38.4742033,12.7844543 38.514868,12.4275873 C38.5555327,12.0707204 38.5758647,11.747616 38.5758647,11.4582645 C38.5758647,11.0917525 38.5097856,10.7686481 38.3776253,10.4889416 C38.245465,10.2092351 38.0675596,9.98257976 37.8439038,9.80896882 C37.6405803,9.61606778 37.3965958,9.47621662 37.1119429,9.38941116 C36.82729,9.30260569 36.5426414,9.25920361 36.2579885,9.25920361 C35.3633651,9.25920361 34.6364946,9.48103647 34.077355,9.92470887 C33.5182154,10.3683813 33.0556614,10.9277859 32.6896791,11.6029395 C32.3236968,12.2780932 32.0288822,13.0014612 31.8052263,13.7730654 C31.5815705,14.5446695 31.368084,15.2583927 31.1647605,15.9142562 L29.2128648,24.7973047 L24.1501352,24.7973047 L26.1020309,15.5381011 C26.2036927,15.2680396 26.3002699,14.9545801 26.3917654,14.5977132 C26.483261,14.2408463 26.5595062,13.8791622 26.6205032,13.5126503 C26.7018326,13.1461383 26.7628288,12.7844543 26.8034934,12.4275873 C26.8441581,12.0707204 26.8644902,11.747616 26.8644902,11.4582645 C26.8644902,11.0917525 26.798411,10.7686481 26.6662508,10.4889416 C26.5340905,10.2092351 26.3561851,9.98257976 26.1325293,9.80896882 C25.9292058,9.61606778 25.6852213,9.47621662 25.4005684,9.38941116 C25.1159155,9.30260569 24.8312669,9.25920361 24.546614,9.25920361 C23.6519906,9.25920361 22.9251201,9.48103647 22.3659805,9.92470887 C21.8068409,10.3683813 21.3442869,10.9277859 20.9783046,11.6029395 C20.6123223,12.2780932 20.3175076,13.0014612 20.0938518,13.7730654 C19.870196,14.5446695 19.6567095,15.2583927 19.453386,15.9142562 L17.5014903,24.7973047 L12.4387607,24.7973047 L15.9460733,7.75458302 C15.9460733,7.58097208 15.9664054,7.4025413 16.0070701,7.21928531 C16.0477348,7.03602932 16.0883989,6.84795363 16.1290636,6.65505259 C16.1900606,6.46215155 16.2408907,6.27407586 16.2815554,6.09081987 C16.3222201,5.90756388 16.3425522,5.7291331 16.3425522,5.55552216 L21.0088029,5.55552216 L20.6428225,8.50689331 C21.0291371,8.04393082 21.440861,7.6291998 21.8780065,7.26268783 C22.315152,6.89617585 22.777706,6.58753882 23.2656824,6.33676747 C23.7536588,6.08599612 24.2670429,5.89309797 24.8058501,5.75806724 C25.3446574,5.62303651 25.9088716,5.55552216 26.4985097,5.55552216 C27.0678155,5.55552216 27.6371127,5.64232633 28.2064185,5.81593727 C28.7757243,5.9895482 29.2941914,6.24031579 29.7618354,6.56824756 C30.2294795,6.89617933 30.6208713,7.28679807 30.9360227,7.74011551 C31.2511741,8.19343296 31.4595776,8.69979059 31.5612393,9.25920361 C31.8458922,8.60334007 32.2271181,8.04393545 32.7049283,7.58097295 C33.1827385,7.11801046 33.7164546,6.73221417 34.3060927,6.4235725 C34.8753985,6.11493084 35.4955259,5.89309797 36.1664934,5.75806724 C36.8374609,5.62303651 37.5185844,5.55552216 38.2098842,5.55552216 C38.8808518,5.55552216 39.5467262,5.68572841 40.2075276,5.94614482 C40.8683289,6.20656122 41.4528752,6.56824524 41.9611839,7.03120774 C42.4694926,7.49417023 42.8812165,8.0391075 43.1963679,8.66603588 C43.5115193,9.29296425 43.6690927,9.98257513 43.6690927,10.7348892 C43.6690927,11.1014012 43.6436776,11.5064873 43.5928467,11.9501597 C43.5420159,12.393832 43.4861028,12.8471427 43.4251057,13.3101052 C43.3437763,13.7730677 43.2573651,14.2312008 43.1658696,14.6845182 C43.074374,15.1378357 42.9777968,15.5477442 42.876135,15.9142562 Z" id="grfx-tm" fill="#FFFFFF"></path>
            <g id="Group-Copy" transform="translate(2.000000, 28.000000)">
                <rect id="Rectangle-2-Copy-6" fill="#009CDE" x="0" y="0" width="40" height="18"></rect>
                <g id="Group" transform="translate(3.500000, 3.000000)">
                    <path d="M6.30675206,11.5002008 C9.46304813,11.5002008 11.8992184,9.35362223 11.8992184,6.21041787 C11.8992184,3.06721351 9.46304813,0.920634921 6.30675206,0.920634921 C3.15045598,0.920634921 0.714285714,3.06721351 0.714285714,6.21041787 C0.714285714,9.35362223 3.15045598,11.5002008 6.30675206,11.5002008 L6.30675206,11.5002008 Z M6.30675206,8.77097947 C4.82053497,8.77097947 3.85525996,7.63635936 3.85525996,6.21041787 C3.85525996,4.78447638 4.82053497,3.64985627 6.30675206,3.64985627 C7.79296914,3.64985627 8.75824415,4.78447638 8.75824415,6.21041787 C8.75824415,7.63635936 7.79296914,8.77097947 6.30675206,8.77097947 L6.30675206,8.77097947 Z" id="ONE" fill="#FFFFFF"></path>
                    <path d="M10.670053,3.51777522 L8.14285714,3.51777501 L9.44360944,1.12698413 L12.8228186,1.12698413 L12.8228185,11.8978122 L10.670053,11.8978123 L10.670053,3.51777522 Z" id="1-copy-18" fill="#009CDE"></path>
                    <path d="M22.2717163,11.3111814 L22.2717163,1.12698413 L19.189635,1.12698413 L19.189635,5.9518812 L15.6498188,1.12698413 L12.4761905,1.12698413 L12.4761905,11.3111814 L15.5582718,11.3111814 L15.5582718,6.1503738 L19.3116976,11.3111814 L22.2717163,11.3111814 Z" id="Path-Copy-2" fill="#FFFFFF"></path>
                    <path d="M31.7204612,11.3111814 L31.7204612,8.62389699 L27.0820813,8.62389699 L27.0820813,7.50928469 L31.6136564,7.50928469 L31.6136564,4.82200024 L27.0820813,4.82200024 L27.0820813,3.81426857 L31.7204612,3.81426857 L31.7204612,1.12698413 L24,1.12698413 L24,7.92675781 L24,11.3111814 L31.7204612,11.3111814 Z" id="Path-Copy" fill="#FFFFFF"></path>
                </g>
            </g>
    </symbol>
    <symbol id="icon-info" width="18px" height="18px" viewBox="0 0 18 18">
        <title>Tooltip Icon</title>
        <desc>Icon displays tooltip on hover</desc>
        <defs></defs>
        <g id="Page-1" stroke="none" stroke-width="1" fill="" fill-rule="evenodd">
            <g id="icon_info" transform="translate(-166.000000, -42.000000)" fill="">
                <g id="grfx-info" transform="translate(166.000000, 42.000000)">
                    <path d="M8.78515625,15.8515625 L8.78515625,15.8515625 C12.3750071,15.8515625 15.2851562,12.9414134 15.2851562,9.3515625 C15.2851562,5.76171163 12.3750071,2.8515625 8.78515625,2.8515625 C5.19530538,2.8515625 2.28515625,5.76171163 2.28515625,9.3515625 C2.28515625,12.9414134 5.19530538,15.8515625 8.78515625,15.8515625 L8.78515625,15.8515625 Z M8.78515625,17.8515625 L8.78515625,17.8515625 C4.09073588,17.8515625 0.28515625,14.0459829 0.28515625,9.3515625 C0.28515625,4.65714213 4.09073588,0.8515625 8.78515625,0.8515625 C13.4795766,0.8515625 17.2851562,4.65714213 17.2851562,9.3515625 C17.2851562,14.0459829 13.4795766,17.8515625 8.78515625,17.8515625 L8.78515625,17.8515625 Z" id="Shape"></path>
                    <path d="M10.2617188,13.7519531 L10.6367188,13.7519531 L10.6367188,13.3769531 L10.6367188,12.9902344 L10.6367188,12.6429727 L10.2904799,12.6163389 C10.210363,12.6101761 10.1405824,12.5990409 10.0813379,12.5835245 C10.0156732,12.5663266 9.9473351,12.5432823 9.87636232,12.514248 C9.83101863,12.4969155 9.81630685,12.4851461 9.80875748,12.4722842 C9.79249861,12.4445839 9.78125,12.3962565 9.78125,12.3222656 L9.78125,8.61132812 L9.78125,8.45599804 L9.67141504,8.34616308 L9.58938379,8.26413183 L9.4696089,8.14435694 L9.30055908,8.15504399 L7.26149658,8.28395024 L6.91015625,8.30616141 L6.91015625,8.65820312 L6.91015625,9.0390625 L6.91015625,9.38989491 L7.26021162,9.41323193 C7.35560115,9.41959124 7.46427381,9.43688007 7.58570274,9.46555079 C7.68932386,9.49001689 7.76001781,9.51636645 7.79389325,9.53776146 C7.83484507,9.56651933 7.87417398,9.60973257 7.90247197,9.66144959 C7.9284454,9.70891826 7.94140625,9.76120861 7.94140625,9.82421875 L7.94140625,12.3925781 C7.94140625,12.4698201 7.93022131,12.5182882 7.91574484,12.5424157 C7.91132916,12.5497751 7.9047731,12.5547514 7.87938718,12.5629112 C7.83584103,12.5774037 7.78199862,12.5875387 7.71460643,12.5930401 C7.57157005,12.6048369 7.57157005,12.6048369 7.43431077,12.6166442 L7.09179688,12.646428 L7.09179688,12.9902344 L7.09179688,13.3769531 L7.09179688,13.7519531 L7.46679688,13.7519531 L10.2617188,13.7519531 L10.2617188,13.7519531 Z M9.58490013,6.58111593 C9.79193181,6.34648003 9.8984375,6.06388493 9.8984375,5.75 C9.8984375,5.45370824 9.78962327,5.1868898 9.58170968,4.96758368 C9.36682865,4.74092835 9.08528837,4.625 8.76171875,4.625 C8.45456649,4.625 8.1823223,4.75112443 7.96645128,4.98714341 C7.7569191,5.21623192 7.6484375,5.49394483 7.6484375,5.80273437 C7.6484375,6.10194027 7.75836492,6.37309457 7.96800381,6.59950457 C8.18393305,6.83270816 8.45560204,6.95703125 8.76171875,6.95703125 C9.08509712,6.95703125 9.36783266,6.82712573 9.58490013,6.58111593 L9.58490013,6.58111593 Z" id="Shape"></path>
                </g>
            </g>
        </g>
    </symbol>
    <symbol id="icon-eye" viewBox="0 0 19 14">
        <title>eye icon</title>
        <path d="M5.77777778,8.13692686 C2.69975904,8.13692686 0.0633939394,5.14562441 0.0633939394,4.44450509 C0.0633939394,3.74338578 2.69975904,0.752922988 5.77777778,0.752922988 C8.92125022,0.752922988 11.4921616,3.53997721 11.4921616,4.44450509 C11.4921616,5.34903297 8.92125022,8.13692686 5.77777778,8.13692686 L5.77777778,8.13692686 Z M5.77777778,1.2252339 C2.88510529,1.2252339 0.587235406,4.04839367 0.539998589,4.44933316 C0.587235406,4.84145618 2.88510529,7.66461595 5.77777778,7.66461595 C8.7805989,7.66461595 11.015557,4.96194794 11.015557,4.44450509 C11.015557,3.92706225 8.7805989,1.2252339 5.77777778,1.2252339 L5.77777778,1.2252339 Z" id="path-1"></path>

        <g id="eye">
            <path d="M5.81332737,6.22222222 C4.83179474,6.22222222 4.03554959,5.42597707 4.03554959,4.44444444 C4.03554959,3.46291182 4.83179474,2.66666667 5.81332737,2.66666667 C6.79485999,2.66666667 7.59110514,3.46291182 7.59110514,4.44444444 C7.59110514,5.42597707 6.79485999,6.22222222 5.81332737,6.22222222 Z" id="Fill-1" fill=""></path>
        </g>
    </symbol>

    <symbol id="icon-drawer-close" viewBox="0 0 20 20">
        <g id="Page-1" stroke="none" stroke-width="1" fill="" fill-rule="evenodd">
            <g id="close_panel">
                <g id="close_panel_icon">
                    <rect id="Rectangle" fill="" x="9" y="18" width="3" height="2"></rect>
                    <rect id="Rectangle" fill="" x="13" y="18" width="3" height="2"></rect>
                    <rect id="Rectangle" fill="" x="9" y="0" width="3" height="2"></rect>
                    <rect id="Rectangle" fill="" x="13" y="0" width="3" height="2"></rect>
                    <polygon id="Combined-Shape" fill="" points="4.18806274 11 5.7592566 12.8492086 4.2407434 14.1507914 1.2407434 10.6507914 0.68292222 10 1.2407434 9.34920863 4.2407434 5.84920863 5.7592566 7.15079137 4.17422064 9 15 9 15 11"></polygon>
                    <polygon id="Combined-Shape" fill="" points="20 1 20 0 17 0 17 2 17.9819336 2 17.9819336 18 17 18 17 20 18.9909668 20 20 20"></polygon>
                </g>
            </g>
        </g>
    </symbol>

  <symbol id="svg-feedback" viewBox="0 0 21 19">
    <path d="M19.3 15L16 18.2 12.8 15 2 15C0.9 15 0 14.1 0 13L0 2C0 0.9 0.9 0 2 0L19 0C20.1 0 21 0.9 21 2L21 13C21 14 20.2 14.9 19.3 15ZM5.5 9C6.3 9 7 8.3 7 7.5 7 6.7 6.3 6 5.5 6 4.7 6 4 6.7 4 7.5 4 8.3 4.7 9 5.5 9ZM10.5 9C11.3 9 12 8.3 12 7.5 12 6.7 11.3 6 10.5 6 9.7 6 9 6.7 9 7.5 9 8.3 9.7 9 10.5 9ZM15.5 9C16.3 9 17 8.3 17 7.5 17 6.7 16.3 6 15.5 6 14.7 6 14 6.7 14 7.5 14 8.3 14.7 9 15.5 9Z"/>
  </symbol>

  <symbol id="svg-phone" viewBox="0 0 24 16">
    <g fill-rule="nonzero">
        <path d="M23.66 4.657c-.275-1.112-.694-1.87-1.166-2.743-5.481-2.286-15.585-2.323-21.06 0-.383.757-.81 1.64-1.092 2.707-.218.83-.518 2.564.035 3.279.42.55 1.621.543 2.527.47 1.293-.093 2.242-.575 2.592-1.42.336-.786.026-2.162.41-2.968.175-.364.626-.795 1.025-1.02 1.898-1.054 6.579-1.02 8.978-.402.866.222 1.829.594 2.153 1.25.46.942.036 2.63.51 3.416.298.497.962.863 1.57 1.015.953.23 2.47.285 3.201-.172.109-.112.214-.23.312-.336.382-.751.182-2.34.005-3.076" />
        <path d="M21.165 15.59c-.096-1.39.18-2.467-.168-3.415-.189-.502-.684-1.019-1.063-1.486-1.008-1.258-1.879-2.283-2.899-3.516-.197-.235-.502-.544-.545-.743-.153-.689.116-1.391 0-2.064h-2.251c-.121.518.067 1.332-.106 1.789-.63.123-1.428.07-2.183.07-.773 0-1.556.078-2.154-.1-.143-.467-.033-1.185-.067-1.76H7.514c-.049.014-.072.048-.072.103v2.026c-.741.924-1.49 1.845-2.285 2.81-.346.416-.747.83-1.12 1.279-.03.038-.069.076-.099.112-.386.47-.73.977-.93 1.546-.33.943-.16 2.06-.207 3.349h18.364z" />
    </g>
  </symbol>

  <symbol id="svg-email" viewBox="0 0 24 15">
    <path d="M.878.099L12 8.945 23.122.1H.878zM0 .798v12.75l7.364-6.895L0 .798zm24 0l-7.364 5.855L24 13.548V.798zM8.233 7.343L.81 14.281h22.38l-7.423-6.938-3.426 2.727c-.2.16-.483.16-.682 0L8.233 7.343z" fill-rule="nonzero" />
  </symbol>

  <symbol id="svg-support" viewBox="0 0 24 30">
    <path d="M23.8450121,8.76146455 C23.8458901,8.35141577 23.7993535,7.94868406 23.6702804,7.56000114 C23.2947682,6.42556211 22.6634511,5.48429382 21.604817,4.87287918 C19.1462804,3.45278162 16.6851096,2.03648894 14.232134,0.606732843 C13.5654023,0.217757233 12.8547682,0.0225377207 12.0911584,0.0020499158 C11.249695,-0.0199013037 10.4497926,0.132293818 9.70930477,0.562537721 C7.23291452,1.99931821 4.74189013,3.4120987 2.27662184,4.86819626 C0.807060866,5.73687918 0.0337925733,7.07180601 0.0156462318,8.77814748 C-0.0145001097,11.6303426 0.00862184155,14.482245 0.00628037813,17.3347328 C0.00598769521,17.7737572 0.0604267196,18.2034158 0.205890134,18.6175621 C0.593695012,19.7200987 1.22032916,20.6347328 2.25730477,21.2315133 C4.69681696,22.6369767 7.13720721,24.0412694 9.56852428,25.4601963 C10.2071584,25.8330743 10.8803292,26.0537572 11.6140853,26.0935621 C12.5105731,26.1427328 13.3634511,25.9972694 14.1531096,25.5386353 C16.6125243,24.1112206 19.0731096,22.6849767 21.5410121,21.2710255 C22.2294023,20.8761963 22.7606218,20.3391231 23.164817,19.6674158 C23.5546706,19.0194158 23.8294999,18.326928 23.8362316,17.5612694 C23.848817,16.0586353 23.8400365,14.5557085 23.8400365,13.053367 L23.8438414,13.053367 C23.8435487,11.6227328 23.8423779,10.1915133 23.8450121,8.76146455 Z M12.9264755,17.4286841 L9.60481696,20.7500499 C9.25681696,21.0980499 8.79964623,21.2721963 8.3424755,21.2721963 C7.88530477,21.2721963 7.42813404,21.0983426 7.08013404,20.7500499 L4.22384135,17.8937572 C3.52784135,17.1983426 3.52784135,16.065367 4.22354867,15.3690743 L7.54549989,12.0471231 C8.22189013,11.3701475 9.31154867,11.3514158 10.0119389,11.990928 C10.024817,12.0023426 10.037695,12.0140499 10.0499877,12.0266353 L10.0704755,12.0471231 C10.3564267,12.3327816 10.3564267,12.7960987 10.0704755,13.0817572 C9.78452428,13.3677085 9.32149989,13.3674158 9.03584135,13.0817572 L9.03584135,13.0817572 C9.03554867,13.0817572 9.03554867,13.0814645 9.03525599,13.0814645 C8.90940233,12.9564889 8.7059877,12.9567816 8.58013404,13.0817572 L5.2584755,16.4037085 C5.13291452,16.5292694 5.13291452,16.7335621 5.2584755,16.8591231 L8.11476818,19.7154158 C8.1967194,19.797367 8.29242672,19.8096597 8.34218282,19.8096597 C8.39193891,19.8096597 8.48793891,19.797367 8.56989013,19.7154158 L11.8915487,16.3934645 C11.9734999,16.3112206 11.9857926,16.215806 11.9857926,16.1657572 C11.9857926,16.1160011 11.9734999,16.0202938 11.8915487,15.9383426 L11.8918414,15.9380499 C11.6257926,15.6500499 11.6231584,15.1917085 11.9026706,14.9130743 C12.1886218,14.6280011 12.640817,14.6183426 12.9261828,14.9034158 C13.2633535,15.2405865 13.4492072,15.6889767 13.4492072,16.1657572 C13.4494999,16.6428304 13.2636462,17.0915133 12.9264755,17.4286841 Z M14.5871584,9.3520987 C14.8731096,9.06614748 15.336134,9.06614748 15.6217926,9.3520987 C15.9077438,9.63775723 15.9077438,10.1010743 15.6217926,10.3867328 L9.2579877,16.7505377 C9.11515843,16.893367 8.92784135,16.9647816 8.74052428,16.9647816 C8.55320721,16.9647816 8.36618282,16.893367 8.22306087,16.7505377 C7.93710965,16.4648792 7.93710965,16.0015621 8.22306087,15.7159036 L14.5871584,9.3520987 Z M19.6218901,10.7332694 L16.2689145,14.086245 C15.9209145,14.434245 15.4634511,14.6080987 15.0065731,14.6080987 C14.5742804,14.6080987 14.1425731,14.4526841 13.8024755,14.1421475 C13.7895975,14.1307328 13.7770121,14.1190255 13.7647194,14.1067328 L13.7442316,14.086245 C13.6014023,13.9434158 13.5299877,13.7560987 13.5299877,13.5687816 C13.5299877,13.3814645 13.6014023,13.1941475 13.7442316,13.0513182 C14.0301828,12.765367 14.4932072,12.765367 14.7788657,13.0513182 C14.9047194,13.1768792 15.1093048,13.1768792 15.2345731,13.0513182 L18.5869633,9.69863528 C18.7125243,9.57307431 18.7125243,9.36878162 18.5869633,9.24322065 L15.7309633,6.38722065 C15.6051096,6.26195235 15.4011096,6.26195235 15.275256,6.38751333 L11.9228657,9.74019626 C11.8406218,9.82244016 11.8286218,9.91785479 11.8286218,9.96761089 C11.8286218,10.017367 11.8406218,10.113367 11.9228657,10.1956109 C12.2082316,10.4809767 12.2085243,10.9437085 11.9234511,11.229367 C11.6386706,11.5153182 11.1759389,11.5164889 10.889695,11.2320011 L10.8689145,11.2112206 C10.8548657,11.1974645 10.8414023,11.1828304 10.828817,11.1681963 C10.5294023,10.838928 10.3652072,10.4160011 10.3652072,9.96761089 C10.3652072,9.49053772 10.5510609,9.04214748 10.8885243,8.70497675 L14.2406218,5.3525865 C14.9369145,4.6565865 16.0693048,4.65629382 16.7655975,5.35229382 L19.6215975,8.2085865 C20.3175975,8.90429382 20.3175975,10.0369767 19.6218901,10.7332694 Z" id="Shape"></path>
  </symbol>

  <symbol id="svg-help" viewBox="0 0 42 42">
    <g transform="translate(1 1)" fill="none" fill-rule="evenodd">
        <path d="M20.646 8.883c-3.667 0-6.668 3.013-6.668 6.695a1.34 1.34 0 0 0 .662 1.176c.415.244.929.244 1.344 0a1.34 1.34 0 0 0 .662-1.176 3.989 3.989 0 0 1 4-4.017c2.225 0 4 1.783 4 4.017.017 1.834-.924 2.773-2.236 4.018-.656.623-1.384 1.27-2 2.12-.616.85-1.097 1.955-1.097 3.237a1.34 1.34 0 0 0 .66 1.175c.416.244.93.244 1.345 0a1.34 1.34 0 0 0 .662-1.175c0-.662.193-1.122.583-1.66.39-.539.998-1.11 1.68-1.758 1.364-1.294 3.09-3.104 3.07-5.957v-.013c-.007-3.676-3.005-6.682-6.667-6.682zm0 18.748c-.982 0-1.778.8-1.778 1.785 0 .987.796 1.786 1.778 1.786s1.778-.8 1.778-1.786-.796-1.785-1.778-1.785z" fill="#009CDE" fill-rule="nonzero" />
        <ellipse stroke="#009CDE" stroke-width="2" cx="20" cy="20" rx="20" ry="20" />
    </g>
  </symbol>

  <symbol id="svg-feedback2" viewBox="0 0 42 33">
    <path d="M40.798 9.959a4.272 4.272 0 0 0-3.116-1.338h-5.581a.587.587 0 0 0 0 1.174h5.581a3.14 3.14 0 0 1 3.134 3.286l-.575 12.136a3.134 3.134 0 0 1-3.14 2.988H36.661a.587.587 0 0 0-.13.052l-.075.053a.522.522 0 0 0-.147.17.516.516 0 0 0-.053.259.552.552 0 0 0 0 .058v.047a.546.546 0 0 0 0 .059 7.107 7.107 0 0 0 1.074 2.823c-1.561-.317-3.65-1.133-4.748-3.193a.546.546 0 0 0-.053-.064.587.587 0 0 0-.082-.094l-.076-.053a.587.587 0 0 0-.117-.065h-.083a.587.587 0 0 0-.111 0H21.496a3.122 3.122 0 0 1-3.122-2.834l-.135-1.409h5.681a4.918 4.918 0 0 0 4.918-4.472l1.35-14.137A4.941 4.941 0 0 0 25.27 0H4.941A4.941 4.941 0 0 0 .006 5.176L.68 19.314a4.93 4.93 0 0 0 4.566 4.694 7.042 7.042 0 0 1-.68 1.732 1.467 1.467 0 0 0 .1 1.637c.273.374.71.593 1.173.587.125 0 .249-.016.37-.047a8.99 8.99 0 0 0 5.71-3.95h5.147l.14 1.515a4.296 4.296 0 0 0 4.296 3.902h10.194c1.35 2.236 3.644 3.134 5.37 3.486.08.008.16.008.24 0 .383 0 .74-.191.951-.51.274-.4.274-.927 0-1.327a5.634 5.634 0 0 1-.733-1.69 4.308 4.308 0 0 0 3.885-4.108l.586-12.107a4.278 4.278 0 0 0-1.197-3.169zm-29.26 12.829h-.083a.587.587 0 0 0-.117 0c-.066.03-.13.068-.188.111a.587.587 0 0 0-.076.094.587.587 0 0 0-.053.065c-1.215 2.283-3.463 3.257-5.135 3.674a.276.276 0 0 1-.305-.1.305.305 0 0 1 0-.346c.482-.88.808-1.838.962-2.83v-.093a.552.552 0 0 0 0-.065.587.587 0 0 0 0-.117.587.587 0 0 0-.047-.1.587.587 0 0 0-.064-.094l-.106-.064-.094-.053-.111-.041h-.505a3.762 3.762 0 0 1-3.762-3.586L1.18 5.065A3.768 3.768 0 0 1 4.941 1.12h20.294A3.72 3.72 0 0 1 28.04 2.33a3.78 3.78 0 0 1 .939 2.934l-1.35 14.138a3.744 3.744 0 0 1-3.744 3.403H11.561l-.024-.017zm-.951-14.443a1.714 1.714 0 1 1-3.428 0 1.714 1.714 0 0 1 3.428 0zm12.418 0a1.714 1.714 0 1 1-1.714-1.713 1.714 1.714 0 0 1 1.72 1.713h-.006zm-4.818 7.295a3.116 3.116 0 0 1-6.204 0 .288.288 0 0 1 .294-.311h5.616a.288.288 0 0 1 .294.31zm15.587 4.02a1.215 1.215 0 1 1 .005 0h-.005zm-4.414 3.75c1.136 0 2.087.86 2.201 1.99a.205.205 0 0 1-.211.216h-3.99a.205.205 0 0 1-.212-.217 2.212 2.212 0 0 1 2.218-1.995l-.006.006z" fill-rule="nonzero" />
  </symbol>

  <symbol id="svg-mailbox" viewBox="0 0 150 139">
    <g id="Page-1" stroke="none" stroke-width="1" fill="none" fill-rule="evenodd">
        <g id="mailbox" transform="translate(1.000000, 0.000000)">
            <circle id="Oval" fill="#6FC6FA" cx="81" cy="66" r="66"></circle>
            <g id="Group-3" transform="translate(0.000000, 12.000000)">
                <path d="M0.469052055,41.5029551 L30.383326,0.932261224 C30.5994082,0.639526531 30.9709973,0.504832653 31.3254082,0.590138776 L45.2496,3.94222041 C45.5081753,4.00507755 45.7260658,4.17748571 45.8454082,4.41364898 L50.6995726,14.0559347 C50.9138466,14.4824653 50.7556274,15.0014857 50.3388329,15.237649 L1.64620274,42.8139755 C0.799052055,43.2934857 -0.106865753,42.2841796 0.469052055,41.5029551" id="Fill-40" fill="#FFFFFF"></path>
                <path d="M0.469052055,41.5029551 L30.383326,0.932261224 C30.5994082,0.639526531 30.9709973,0.504832653 31.3254082,0.590138776 L45.2496,3.94222041 C45.5081753,4.00507755 45.7260658,4.17748571 45.8454082,4.41364898 L50.6995726,14.0559347 C50.9138466,14.4824653 50.7556274,15.0014857 50.3388329,15.237649 L1.64620274,42.8139755 C0.799052055,43.2934857 -0.106865753,42.2841796 0.469052055,41.5029551 Z" id="Stroke-42" stroke="#CCCCCC" stroke-width="2"></path>
                <path d="M52.2814027,28.3708408 L49.2743342,12.7957388 L1.18293699,41.4945143 C0.280635616,42.0323918 0.876443836,43.4089633 1.89085479,43.1288 L51.6358685,29.4052898 C52.0888274,29.2804735 52.3700055,28.829698 52.2814027,28.3708408 Z" id="Stroke-44" stroke="#CCCCCC" stroke-width="2" stroke-linecap="round" fill="#D8D8D8"></path>
                <path d="M1.21539452,41.1870531 L47.8954767,6.85897143 C48.1838877,6.64705306 48.5708466,6.62460408 48.8818603,6.80060408 L65.7742438,16.3881143 L2.10142192,42.7378286 C1.11594247,43.145502 0.357394521,41.8183184 1.21539452,41.1870531" id="Fill-46" fill="#FFFFFF"></path>
                <path d="M1.21539452,41.1870531 L47.8954767,6.85897143 C48.1838877,6.64705306 48.5708466,6.62460408 48.8818603,6.80060408 L65.7742438,16.3881143 L2.10142192,42.7378286 C1.11594247,43.145502 0.357394521,41.8183184 1.21539452,41.1870531 Z" id="Stroke-48" stroke="#CCCCCC" stroke-width="2" stroke-linecap="round"></path>
                <path d="M45.2496,4.84053878 L0.469052055,42.4012735" id="Stroke-50" stroke="#CCCCCC" stroke-width="2" stroke-linecap="round"></path>
            </g>
            <g id="noun_625337_cc" transform="translate(41.000000, 31.000000)" stroke-linecap="round" stroke-width="2" stroke="#FFFFFF" stroke-linejoin="round">
                <g id="Group">
                    <path d="M40,36.999 L40,66.998 L80,66.998 L80,36.999 C80,25.953 71.046,17 59.997,17 L20,17 L20,17 C31.047,17 40,25.953 40,36.999 Z" id="Shape"></path>
                    <path d="M0,36.999 C0,25.953 8.953,17 20,17 C31.047,17 40,25.953 40,36.999 L40,66.998 L0,66.998 L0,36.999 Z" id="Shape"></path>
                    <g id="Group-2" transform="translate(61.000000, 13.000000) scale(-1, -1) rotate(90.000000) translate(-61.000000, -13.000000) translate(48.000000, 4.000000)">
                        <polygon id="Shape" points="25.501 17.665 19.251 12.978 13.001 17.665 13.001 0.999 25.501 0.999"></polygon>
                        <path d="M25.501,0.999 L0.498,0.999 L25.501,0.999 Z" id="Shape"></path>
                    </g>
                    <rect id="Rectangle-path" x="32.501" y="66.998" width="15.001" height="35.002"></rect>
                </g>
            </g>
        </g>
    </g>
  </symbol>
  <symbol id="svg-close" viewBox="0 0 14 14">
    <line x1="1" y1="1" x2="13" y2="13"></line>
    <line x1="13" y1="1" x2="1" y2="13"></line>
  </symbol>

  <symbol id="svg-search" viewBox="-4 0 22 15">
    <path d="M8.3 11.3C11.5 11.3 14.1 8.7 14.1 5.6 14.1 2.5 11.5-0.1 8.3-0.1 5.1-0.1 2.4 2.5 2.4 5.6 2.4 8.7 5.1 11.3 8.3 11.3ZM8.3 9.7C5.9 9.7 4.1 7.8 4.1 5.6 4.1 3.4 5.9 1.6 8.3 1.6 10.6 1.6 12.4 3.4 12.4 5.6 12.4 7.8 10.6 9.7 8.3 9.7ZM7.3 10.5L7.3 15.8C7.3 16.2 7.6 16.6 8.1 16.6 8.5 16.6 8.9 16.2 8.9 15.8L8.9 10.5C8.9 10 8.5 9.7 8.1 9.7 7.6 9.7 7.3 10 7.3 10.5Z" transform="translate(8.3, 8.3) rotate(-45) translate(-8.3, -8.3)"/>
  </symbol>

  <symbol id="svg-addnew" viewBox="-3 0 22 16">
    <path d="M8 15.7C3.8 15.7 0.3 12.2 0.3 8 0.3 3.8 3.8 0.3 8 0.3 12.2 0.3 15.7 3.8 15.7 8 15.7 12.2 12.2 15.7 8 15.7ZM8 14.3C11.5 14.3 14.3 11.5 14.3 8 14.3 4.5 11.5 1.7 8 1.7 4.5 1.7 1.7 4.5 1.7 8 1.7 11.5 4.5 14.3 8 14.3Z"/>
    <path d="M8.8 7.2L8.8 5.7C8.8 5.2 8.4 4.9 8 4.9 7.6 4.9 7.2 5.2 7.2 5.7L7.2 7.2 5.7 7.2C5.2 7.2 4.9 7.6 4.9 8 4.9 8.4 5.2 8.8 5.7 8.8L7.2 8.8 7.2 10.3C7.2 10.8 7.6 11.1 8 11.1 8.4 11.1 8.8 10.8 8.8 10.3L8.8 8.8 10.3 8.8C10.8 8.8 11.1 8.4 11.1 8 11.1 7.6 10.8 7.2 10.3 7.2L8.8 7.2Z"/>
  </symbol>

  <symbol id="svg-user" viewBox="0 0 16 16">
    <path d="M1.3 16L14.8 16C15.6 16 16.2 15.2 15.9 14.4L15.4 12.8C14.8 11.7 13.7 10.8 12.5 10.5L10.6 9.9C10.1 9.7 9.8 9.2 10 8.6 10 8.5 10.1 8.4 10.1 8.3L11.3 6.4C11.8 5.7 12 4.7 11.9 3.8L11.7 3.1C11.6 2.1 11 1.3 10.2 0.7 8.9-0.3 7.1-0.2 5.8 0.8L5.8 0.8C5.1 1.3 4.6 2.1 4.4 2.9L4.2 3.7C4 4.7 4.2 5.7 4.7 6.6L5.8 8.4C5.9 8.4 6 8.5 6 8.7 6.2 9.2 5.9 9.8 5.3 10L3.4 10.5C2.2 10.9 1.2 11.7 0.6 12.8L0 14.4C-0.2 15.2 0.4 16 1.3 16Z"/>
  </symbol>

  <symbol id="svg-feedback" viewBox="0 0 21 19">
    <path d="M19.3 15L16 18.2 12.8 15 2 15C0.9 15 0 14.1 0 13L0 2C0 0.9 0.9 0 2 0L19 0C20.1 0 21 0.9 21 2L21 13C21 14 20.2 14.9 19.3 15ZM5.5 9C6.3 9 7 8.3 7 7.5 7 6.7 6.3 6 5.5 6 4.7 6 4 6.7 4 7.5 4 8.3 4.7 9 5.5 9ZM10.5 9C11.3 9 12 8.3 12 7.5 12 6.7 11.3 6 10.5 6 9.7 6 9 6.7 9 7.5 9 8.3 9.7 9 10.5 9ZM15.5 9C16.3 9 17 8.3 17 7.5 17 6.7 16.3 6 15.5 6 14.7 6 14 6.7 14 7.5 14 8.3 14.7 9 15.5 9Z"/>
  </symbol>

  <symbol id="svg-default" viewBox="0 0 22 22">
    <path d="M11 9.7L3.1 5.1 11 1.3 18.9 5.1 11 9.7ZM19.8 15.6L11.8 20.7 11.8 11.1 19.8 6.6 19.8 15.6ZM2.2 15.4L2.2 6.4 10.2 11.1 10.2 20.7 2.2 15.4Z"/>
  </symbol>

  <!-- APPLICATION ICONS -->
  <symbol id="svg-analytics" viewBox="0 0 22 22">
    <path d="M7.6 3.5C4.8 4.8 2.7 7.8 2.7 11.2 2.7 14.5 4.8 17.6 7.8 18.9L8.4 21 7.5 20.7C3.6 19.2 1 15.4 1 11.2 1 5.6 5.5 1 11 1 16.5 1 21 5.6 21 11.2 21 15.3 18.5 19.1 14.7 20.6L13.9 20.9 14.3 18.8C17.3 17.5 19.3 14.5 19.3 11.2 19.3 6.5 15.6 2.8 11 2.8 9.9 2.8 8.8 3 7.8 3.4L11.2 8.7C12.1 8.7 13 9.3 13.3 10.2 13.9 11.4 13.3 12.9 12.1 13.5 10.8 14 9.4 13.5 8.8 12.2 8.4 11.3 8.6 10.3 9.2 9.6L7.6 3.5Z"/>
  </symbol>

  <symbol id="svg-app-manager" viewBox="0 0 22 22">
    <path d="M19.9 7.2L19.2 6.5C19 6.4 18.8 6.4 18.7 6.5L18.4 6.9 18.3 5.8 17.6 5.1 15.4 3.1C14.9 2.7 14.1 2.4 13.4 2.5 12.8 2.6 12.4 2.7 12.1 2.8 11 3.2 11.7 4 11.9 4 12.6 4.3 13.6 5.1 13.8 5.3L11.5 8.1C11 7.7 10.3 7.8 9.9 8.3L3.4 16.1C3 16.5 3.1 17.3 3.5 17.7L5.2 19.2C5.6 19.6 6.3 19.6 6.7 19.1L13.2 11.3C13.6 10.8 13.6 10.1 13.1 9.7L15.5 6.9 15.7 7.1 16.6 7.9 17.7 7.8 17.4 8.2C17.2 8.3 17.3 8.5 17.4 8.6L18.1 9.3C18.3 9.4 18.5 9.4 18.6 9.3L19.9 7.7C20 7.5 20 7.3 19.9 7.2ZM18.7 16.7L13.5 11.9 11.5 14.3 16.7 19.1C17 19.4 17.4 19.5 17.8 19.5 18.6 19.4 19.3 18.7 19.2 17.8 19.2 17.4 19 17 18.7 16.7ZM5.2 9.4C5.5 9.4 5.7 9.3 6 9.3L7.3 10.5 9.3 8.1 8 6.9C8 6.6 8 6.3 8 6.1 7.9 4.3 6.5 3 4.8 3.1 4.4 3.1 4 3.3 3.6 3.5L5.6 5.3 5.4 6.6 4.2 7 2.2 5.2C2 5.6 2 6 2 6.5 2.1 8.2 3.6 9.5 5.2 9.4Z"/>
  </symbol>

  <symbol id="svg-community" viewBox="0 0 22 22">
    <path d="M7.6 4.5L9.9 6.3C8.2 7.4 6.5 9.5 6.2 11.3 6.3 11.3 6.7 11.2 7.1 11.2 8.7 11.2 9.9 12.5 9.9 14.2 9.9 16 8.5 17.5 6.6 17.5 4.7 17.5 3 15.8 3 13 3 9.6 4.9 6.4 7.6 4.5L7.6 4.5ZM16.7 4.5L18.9 6.3C17.3 7.4 15.6 9.5 15.4 11.3 15.5 11.3 15.8 11.2 16.1 11.2 17.7 11.2 19 12.5 19 14.2 19 16 17.6 17.5 15.8 17.5 13.8 17.5 12.1 15.8 12.1 13 12.1 9.6 14 6.4 16.7 4.5L16.7 4.5Z"/>
  </symbol>

  <symbol id="svg-layers" viewBox="0 0 22 22">
    <path d="M17.8 10.5L22 12.8 21.1 13.3 22 13.8 11 20 0 13.8 0.9 13.3 0 12.8 4.2 10.4C4.1 10.3 4.1 10.2 4.2 10 4.3 9.9 4.5 9.8 4.7 9.9L5.4 10.3C5.6 10.4 5.7 10.6 5.6 10.8 5.5 10.9 5.3 11 5.2 11 5.2 11 5.1 11 5 10.9L4.9 10.9 1.5 12.8 1.7 12.9 4.7 11.1 5.1 11.8 2.4 13.3 11 18.1 19.6 13.3 16.9 11.8 17.3 11.2 20.3 12.9 20.5 12.8 17.1 10.9 17 11C16.9 11 16.9 11 16.8 11 16.7 11 16.5 11 16.5 10.8 16.4 10.7 16.4 10.4 16.6 10.3L17.3 9.9C17.5 9.8 17.7 9.9 17.8 10.1 17.9 10.2 17.9 10.4 17.8 10.5ZM1.7 13.7L11 19 20.3 13.8 20.5 13.8 11 19.1 1.5 13.8 1.7 13.7ZM11 14.3C11 14.3 10.9 14.3 10.8 14.2L10.5 14C10.3 13.9 10.3 13.7 10.4 13.5 10.5 13.3 10.7 13.3 10.9 13.4L11 13.5 11.2 13.4C11.4 13.3 11.6 13.3 11.7 13.5 11.8 13.7 11.7 13.9 11.6 14L11.2 14.2C11.2 14.3 11.1 14.3 11 14.3ZM9.3 13.3C9.3 13.3 9.2 13.3 9.1 13.3L8.5 12.9C8.3 12.8 8.2 12.5 8.3 12.4 8.4 12.2 8.7 12.1 8.8 12.2L9.5 12.6C9.7 12.7 9.8 12.9 9.7 13.1 9.6 13.2 9.5 13.3 9.3 13.3ZM7.3 12.2C7.2 12.2 7.1 12.1 7.1 12.1L6.4 11.7C6.2 11.6 6.1 11.4 6.3 11.2 6.4 11 6.6 11 6.8 11.1L7.5 11.5C7.6 11.6 7.7 11.8 7.6 12 7.5 12.1 7.4 12.2 7.3 12.2ZM3.2 9.8C3.1 9.8 3 9.8 3 9.8L2.3 9.4C2.1 9.3 2 9.1 2.1 8.9 2.2 8.7 2.5 8.6 2.7 8.8L3.4 9.1C3.5 9.2 3.6 9.5 3.5 9.7 3.4 9.8 3.3 9.8 3.2 9.8ZM1.1 8.7C1 8.7 1 8.7 0.9 8.6L0.6 8.4C0.5 8.4 0.4 8.3 0.4 8.1 0.4 8 0.5 7.9 0.6 7.8L0.9 7.6C1.1 7.5 1.3 7.6 1.4 7.7 1.5 7.9 1.5 8 1.4 8.1 1.5 8.2 1.5 8.4 1.4 8.5 1.4 8.6 1.2 8.7 1.1 8.7ZM2.5 7.5C2.3 7.5 2.2 7.5 2.1 7.4 2 7.2 2.1 6.9 2.3 6.8L3 6.5C3.1 6.4 3.4 6.4 3.5 6.6 3.6 6.8 3.5 7 3.3 7.1L2.7 7.5C2.6 7.5 2.5 7.5 2.5 7.5ZM4.5 6.4C4.4 6.4 4.2 6.3 4.2 6.2 4.1 6 4.1 5.8 4.3 5.7L5 5.3C5.2 5.2 5.4 5.3 5.5 5.4 5.6 5.6 5.6 5.9 5.4 6L4.7 6.3C4.6 6.4 4.6 6.4 4.5 6.4ZM6.6 5.2C6.4 5.2 6.3 5.2 6.2 5.1 6.1 4.9 6.2 4.6 6.4 4.5L7 4.2C7.2 4.1 7.5 4.1 7.6 4.3 7.7 4.5 7.6 4.7 7.4 4.8L6.7 5.2C6.7 5.2 6.6 5.2 6.6 5.2ZM8.6 4.1C8.5 4.1 8.3 4 8.3 3.9 8.2 3.7 8.2 3.5 8.4 3.4L9.1 3C9.3 2.9 9.5 3 9.6 3.1 9.7 3.3 9.6 3.6 9.5 3.7L8.8 4C8.7 4.1 8.7 4.1 8.6 4.1ZM11.3 2.9C11.2 2.9 11.2 2.9 11.1 2.9L11 2.8 10.8 2.9C10.6 3 10.4 2.9 10.3 2.8 10.2 2.6 10.3 2.3 10.4 2.2L10.8 2.1C10.9 2 11 2 11.2 2.1L11.5 2.2C11.7 2.3 11.7 2.6 11.6 2.8 11.6 2.9 11.4 2.9 11.3 2.9ZM19.5 7.6C19.5 7.6 19.4 7.6 19.3 7.5L18.6 7.1C18.5 7 18.4 6.8 18.5 6.6 18.6 6.4 18.8 6.4 19 6.5L19.7 6.9C19.9 7 20 7.2 19.9 7.4 19.8 7.5 19.7 7.6 19.5 7.6ZM17.5 6.4C17.4 6.4 17.3 6.4 17.3 6.4L16.6 6C16.4 5.9 16.3 5.6 16.5 5.5 16.6 5.3 16.8 5.2 17 5.3L17.7 5.7C17.8 5.8 17.9 6 17.8 6.2 17.7 6.3 17.6 6.4 17.5 6.4ZM15.4 5.3C15.3 5.3 15.3 5.2 15.2 5.2L14.5 4.8C14.4 4.7 14.3 4.5 14.4 4.3 14.5 4.1 14.7 4.1 14.9 4.2L15.6 4.6C15.8 4.7 15.9 4.9 15.7 5.1 15.7 5.2 15.5 5.3 15.4 5.3ZM13.4 4.1C13.3 4.1 13.2 4.1 13.2 4L12.5 3.7C12.3 3.6 12.2 3.3 12.3 3.1 12.4 3 12.7 2.9 12.9 3L13.6 3.4C13.7 3.5 13.8 3.7 13.7 3.9 13.6 4 13.5 4.1 13.4 4.1ZM20.9 8.7C20.8 8.7 20.6 8.7 20.6 8.5 20.5 8.4 20.5 8.3 20.6 8.2 20.5 8 20.5 7.9 20.6 7.8 20.7 7.6 20.9 7.5 21.1 7.6L21.4 7.8C21.5 7.9 21.6 8 21.6 8.2 21.6 8.3 21.5 8.4 21.4 8.5L21.1 8.7C21 8.7 21 8.7 20.9 8.7ZM12.7 13.3C12.6 13.3 12.5 13.2 12.4 13.1 12.3 12.9 12.4 12.7 12.5 12.6L13.2 12.2C13.4 12.1 13.6 12.2 13.7 12.4 13.8 12.5 13.8 12.8 13.6 12.9L12.9 13.3C12.9 13.3 12.8 13.3 12.7 13.3ZM14.8 12.2C14.6 12.2 14.5 12.1 14.4 12 14.3 11.8 14.4 11.6 14.6 11.5L15.3 11.1C15.4 11 15.7 11 15.8 11.2 15.9 11.4 15.8 11.6 15.6 11.7L15 12.1C14.9 12.2 14.8 12.2 14.8 12.2ZM18.9 9.9C18.7 9.9 18.6 9.8 18.5 9.7 18.4 9.5 18.5 9.3 18.7 9.2L19.3 8.8C19.5 8.7 19.8 8.7 19.9 8.9 20 9.1 19.9 9.3 19.7 9.4L19 9.8C19 9.9 18.9 9.9 18.9 9.9Z"/>
  </symbol>

  <symbol id="svg-devcenter" viewBox="0 0 22 22">
    <path d="M13.6 11.1L15.2 9.5C15.5 9.6 15.8 9.7 16.1 9.7 18.3 9.7 20 7.9 20 5.8 20 5.3 19.9 4.7 19.7 4.3L17.3 6.7 15.8 6.2 15.3 4.7 17.7 2.3C17.3 2.1 16.7 2 16.2 2 14.1 2 12.4 3.7 12.3 5.9 12.3 6.2 12.4 6.5 12.5 6.8L10.9 8.4 10.9 8.4 2.6 16.7C2.2 17.1 2 17.5 2 18.1 2 19.2 2.8 20 3.9 20 4.4 20 4.9 19.8 5.3 19.4L13.6 11.1 13.6 11.1ZM3 18C3 17.4 3.4 17 4 17 4.6 17 5 17.4 5 18 5 18.6 4.6 19 4 19 3.4 19 3 18.6 3 18Z"/>
  </symbol>

  <symbol id="svg-fanbuilder" viewBox="0 0 22 22">
    <path d="M17.4 7.2L16.1 8.5C16.7 9.6 17.1 10.8 17.1 12.1 17.1 16 13.8 19.3 9.9 19.3 6 19.3 2.7 16 2.7 12.1 2.7 8.2 6 4.9 9.9 4.9 11.1 4.9 12.3 5.3 13.3 5.8L14.6 4.6C13.2 3.7 11.6 3.2 9.9 3.2 5 3.2 1 7.2 1 12.1 1 17 5 21 9.9 21 14.8 21 18.8 17 18.8 12.1 18.8 10.4 18.3 8.7 17.4 7.2ZM13.7 10.9C13.9 11.3 13.9 11.7 13.9 12.1 13.9 14.3 12.1 16.1 9.9 16.1 7.7 16.1 5.9 14.3 5.9 12.1 5.9 9.9 7.7 8.1 9.9 8.1 10.3 8.1 10.6 8.1 11 8.2L12.3 6.9C11.6 6.5 10.7 6.3 9.9 6.3 6.7 6.3 4.1 8.9 4.1 12.1 4.1 15.3 6.7 17.9 9.9 17.9 13.1 17.9 15.7 15.3 15.7 12.1 15.7 11.2 15.5 10.3 15.1 9.5L13.7 10.9ZM18.2 6.6L21 3.8 18.9 3.1 18.2 1 15.4 3.8 15.9 5.5 10.8 10.6C10.5 10.4 10.2 10.3 9.9 10.3 8.9 10.3 8.1 11.1 8.1 12.1 8.1 13.1 8.9 13.9 9.9 13.9 10.9 13.9 11.7 13.1 11.7 12.1 11.7 11.8 11.6 11.5 11.4 11.2L16.5 6.1 18.2 6.6Z"/>
  </symbol>

  <symbol id="svg-tradedesk" viewBox="0 0 22 22">
    <path d="M16.1 9.7C15.5 10 14.8 9.8 14.5 9.2 14.2 8.6 14.4 7.8 15 7.5 15 7.5 15 7.5 15.1 7.5L14.3 6 5.2 10.9 5.9 12.4C5.9 12.3 6 12.3 6 12.3 6.6 12 7.3 12.2 7.6 12.8 7.9 13.4 7.7 14.2 7.1 14.5 7.1 14.5 7 14.5 7 14.5L7.7 15.9 16.9 11.1 16.1 9.6C16.1 9.6 16.1 9.7 16.1 9.7ZM20.9 15.9L19.8 15.2C21.6 11.5 20.8 6.9 17.9 3.9 16.1 2 13.7 1 11.1 1 8.5 1 6.1 2 4.2 3.9L5.4 5.1C6.9 3.5 8.9 2.7 11.1 2.7 13.2 2.7 15.3 3.5 16.8 5.1 19.2 7.5 19.8 11.2 18.4 14.3L17.4 13.7C17.3 13.6 17.1 13.7 17.2 13.9L17.8 16.5C17.8 16.8 17.9 16.9 18.3 16.8L20.8 16.2C21 16.2 21.1 16 20.9 15.9ZM1.1 6.1L2.2 6.8C0.4 10.5 1.2 15.1 4.1 18.1 5.9 20 8.3 21 10.9 21 13.5 21 15.9 20 17.8 18.1L16.6 16.9C15.1 18.5 13.1 19.3 10.9 19.3 8.8 19.3 6.7 18.5 5.2 16.9 2.8 14.5 2.2 10.8 3.6 7.7L4.6 8.3C4.7 8.4 4.9 8.3 4.8 8.1L4.2 5.5C4.2 5.2 4.1 5.1 3.7 5.2L1.2 5.8C1 5.8 0.9 6 1.1 6.1Z"/>
  </symbol>

  <symbol id="svg-permissions" viewBox="0 0 22 22">
    <path d="M4.5 21L17.5 21 17.5 9 4.5 9 4.5 21ZM11.8 18L10.3 18 10.3 15.9C9.9 15.7 9.5 15.2 9.5 14.6 9.5 13.7 10.2 13 11 13 11.8 13 12.5 13.7 12.5 14.6 12.5 15.2 12.1 15.7 11.8 15.9L11.8 18ZM14.9 9L14.9 7.2C14.9 4.8 13.2 2.8 11 2.8 8.8 2.8 7.1 4.8 7.1 7.2L7.1 9 5.5 9 5.5 7.2C5.5 3.8 8 1 11 1 14 1 16.5 3.8 16.5 7.2L16.5 9 14.9 9Z"/>
  </symbol>

  <symbol id="svg-objects" viewBox="0 0 22 22">
    <path d="M11 16.3C9.3 16.3 7.9 14.9 7.9 13.3 7.9 11.6 9.3 10.2 11 10.2 12.7 10.2 14.1 11.6 14.1 13.3 14.1 14.9 12.7 16.3 11 16.3M19.1 8L2.9 8C2.7 8 2.5 8.2 2.5 8.4L2.5 18.1C2.5 18.3 2.7 18.5 2.9 18.5L19.1 18.5C19.3 18.5 19.5 18.3 19.5 18.1L19.5 8.4C19.5 8.2 19.3 8 19.1 8ZM18.7 6.1C18.7 5.9 18.5 5.7 18.3 5.7L3.7 5.7C3.5 5.7 3.3 5.9 3.3 6.1L3.3 7.2 18.7 7.2 18.7 6.1ZM18 3.9C18 3.7 17.8 3.5 17.5 3.5L4.5 3.5C4.2 3.5 4 3.7 4 3.9L4 5 18 5 18 3.9ZM11.4 11L10.6 11 10.6 12.9 8.7 12.9 8.7 13.6 10.6 13.6 10.6 15.5 11.4 15.5 11.4 13.6 13.3 13.6 13.3 12.9 11.4 12.9 11.4 11Z"/>
  </symbol>

  <symbol id="svg-support" viewBox="0 0 22 22">
    <path d="M1 11C1 12.9 1.5 14.7 2.5 16.2L1 19.7 4.5 18.6C6.3 20.1 8.5 21 11 21 16.5 21 21 16.5 21 11 21 5.5 16.5 1 11 1 5.5 1 1 5.5 1 11ZM11 19.2C6.5 19.2 2.8 15.5 2.8 11 2.8 6.5 6.5 2.8 11 2.8 15.5 2.8 19.2 6.5 19.2 11 19.2 15.5 15.5 19.2 11 19.2ZM11 14.5C10.5 14.5 10 15 10 15.5 10 16.1 10.5 16.5 11 16.5 11.5 16.5 12 16.1 12 15.5 12 15 11.5 14.5 11 14.5ZM11.2 5.4C9.6 5.4 8.5 6 7.6 7L8.5 8.1C9.1 7.4 9.9 6.8 11 6.8 12.2 6.8 12.7 7.5 12.7 8.2 12.7 8.9 12.1 9.4 11.5 9.8 10.7 10.4 9.9 10.9 9.9 12 9.9 12.5 10.1 13 10.5 13.4L11.7 12.9C11.5 12.7 11.4 12.4 11.4 12.2 11.4 11.5 12 11.1 12.6 10.6 13.5 10.1 14.5 9.4 14.5 8 14.5 6.5 13.2 5.4 11.2 5.4Z"/>
  </symbol>

  <symbol id="svg-jumplink" viewBox="0 0 22 22">
    <path d="M13.4 4.5L14.9 5.9 14.5 6.4 11.2 9.6 10.7 10.2 11.8 11.3 12.4 10.8 15.6 7.5 16.1 7.1 17.5 8.6 17.5 4.5 13.4 4.5 13.4 4.5ZM4.5 6.1L4.5 17.5 15.9 17.5 15.9 11 14.3 11 14.3 15.9 6.1 15.9 6.1 7.8 11 7.8 11 6.1 4.5 6.1Z"/>
  </symbol>

  <symbol id="svg-default" viewBox="0 0 22 22">
    <path d="M11 9.7L3.1 5.1 11 1.3 18.9 5.1 11 9.7ZM19.8 15.6L11.8 20.7 11.8 11.1 19.8 6.6 19.8 15.6ZM2.2 15.4L2.2 6.4 10.2 11.1 10.2 20.7 2.2 15.4Z"/>
  </symbol>

  <!-- INTERNATIONAL APPLICATION ICONS -->
  <symbol id="svg-access" viewBox="0 0 22 22">
    <path d="M11,19.2655156 C6.43505987,19.2655156 2.73448436,15.5649401 2.73432882,10.9999999 C2.73432882,6.43505987 6.43505987,2.73448436 11,2.73448436 C15.5649401,2.73448436 19.2655156,6.43505987 19.2655156,10.9999999 C19.2655156,15.5649401 15.5649401,19.2655156 11,19.2655156 L11,19.2655156 Z M11,0.999999997 C5.47721262,0.999999997 1,5.47705707 1,10.9999999 C1,16.5227873 5.47721262,20.9999999 11,20.9999999 C16.5227873,20.9999999 21,16.5229429 21,10.9999999 C21,5.47721262 16.5227873,0.999999997 11,0.999999997 L11,0.999999997 Z" id="Fill-1"></path>
    <path d="M13.3725307,8.71877429 C13.3725307,7.40861719 12.3103126,6.34624357 11,6.34624357 C9.68968736,6.34624357 8.62746927,7.40846165 8.62746927,8.71877429 C8.62746927,9.63182451 9.14356819,10.4238606 9.89951777,10.8205008 L9.46803549,15.6537564 L12.5319645,15.6537564 L12.1004821,10.8205008 C12.8564318,10.4240162 13.3725307,9.63182451 13.3725307,8.71877429" id="Fill-4"></path>
  </symbol>

  <symbol id="svg-clienthub" viewBox="0 0 22 22">
    <path d="M21,18.289939 L16.2734484,21 L11.5470524,18.289939 L11.5470524,12.8715157 L16.2734484,10.1625357 L21,12.8715157 L21,18.289939 Z M10.452792,18.289939 L5.72624047,21 L1,18.289939 L1,12.8715157 L5.72624047,10.1625357 L10.452792,12.8715157 L10.452792,18.289939 Z M15.726396,9.12755771 L10.9998445,11.8362289 L6.27360397,9.12755771 L6.27360397,3.70928886 L10.9998445,1 L15.726396,3.70928886 L15.726396,9.12755771 Z" id="Combined-Shape"></path>
  </symbol>

  <symbol id="svg-codes" viewBox="0 0 22 22">
    <path d="M16.1054852,20.9156118 C13.6353509,20.9156118 11.6329114,18.9131723 11.6329114,16.443038 C11.6329114,13.9729037 13.6353509,11.9704641 16.1054852,11.9704641 C18.5756196,11.9704641 20.5780591,13.9729037 20.5780591,16.443038 C20.5780591,18.9131723 18.5756196,20.9156118 16.1054852,20.9156118 Z M5.55696203,9.94514768 C3.0868277,9.94514768 1.08438819,7.94270816 1.08438819,5.47257384 C1.08438819,3.00243952 3.0868277,1 5.55696203,1 C8.02709635,1 10.0295359,3.00243952 10.0295359,5.47257384 C10.0295359,7.94270816 8.02709635,9.94514768 5.55696203,9.94514768 Z M16.6118143,10.0295359 C11.1265823,10.7046414 10.1983122,14.5864979 9.94514768,16.443038 L9.94514768,16.5274262 C9.94514768,18.9746835 7.91983122,21 5.47257384,21 C3.02531646,21 1,18.9746835 1,16.5274262 C1,14.2489451 2.60337553,12.3924051 4.79746835,12.0548523 L5.21940928,12.0548523 L5.21940928,11.9704641 C10.8734177,10.7890295 11.8016878,6.48523207 11.9704641,5.21940928 L12.0548523,4.88185654 C12.3924051,2.7721519 14.3333333,1.08438819 16.5274262,1.08438819 C18.9746835,1.08438819 21,3.10970464 21,5.55696203 C21,7.91983122 19.2278481,9.86075949 16.8649789,10.0295359 L16.6118143,10.0295359 Z" id="Combined-Shape"></path>
  </symbol>

  <symbol id="svg-eventgo" viewBox="0 0 22 22">
    <polygon id="Fill-1" points="17.6665833 7.25 4.33325 7.25 4.33325 14.75 17.6665833 14.75"></polygon>
    <path d="M18.5,15.5833333 L3.5,15.5833333 L3.5,6.41666667 L18.5,6.41666667 L18.5,15.5833333 Z M18.9733333,4.75 L2.78416667,4.75 C2.68416667,5.58333333 1.83333333,6.4325 1,6.45333333 L1,15.5141667 C1.83333333,15.535 2.68416667,16.4166667 2.78416667,17.25 L18.9733333,17.25 C19.0733333,16.4166667 20.1666667,15.535 21,15.5141667 L21,6.45333333 C20.1666667,6.4325 19.0733333,5.58333333 18.9733333,4.75 L18.9733333,4.75 Z" id="Fill-2"></path>
  </symbol>

  <symbol id="svg-flex" viewBox="0 0 22 22">
    <path d="M18.3225446,15.0382244 L17.1400643,15.0382244 C16.5834069,15.0382244 16.1317478,14.5865652 16.1317478,14.0299078 C16.1317478,13.4732504 16.5834069,13.0215913 17.1400643,13.0215913 L18.3225446,13.0215913 C18.879202,13.0215913 19.3308612,13.4732504 19.3308612,14.0299078 C19.3308612,14.5865652 18.879202,15.0382244 18.3225446,15.0382244 L18.3225446,15.0382244 L18.3225446,15.0382244 Z M1.00033333,16.8323611 C1.00033333,17.2931868 1.37366044,17.6665139 1.83448609,17.6665139 L20.1658472,17.6665139 C20.6266729,17.6665139 21,17.2931868 21,16.8323611 L21,9.35866701 L1.00033333,9.35866701 L1.00033333,16.8323611 Z M1.83498608,4.33348611 C1.37416043,4.33348611 1,4.70681322 1,5.16763887 L1,6.82844453 L20.9996667,6.82844453 L20.9996667,5.16763887 C20.9996667,4.70681322 20.6263396,4.33348611 20.1655139,4.33348611 L1.83498608,4.33348611 L1.83498608,4.33348611 Z" id="Shape"></path>
  </symbol>

  <symbol id="svg-reports" viewBox="0 0 22 22">
    <path d="M3.2726768,1 L15.6813352,1 L18.7273232,4.46336822 L18.7273232,21 L3.2726768,21 L3.2726768,1 Z M16.0757216,7.70456708 C15.4899302,7.70456708 15.0151443,8.179353 15.0151443,8.76514431 C15.0151443,8.97589597 15.0773073,9.1717412 15.1832382,9.33682207 L13.4437837,11.9354583 C13.3311925,11.8945449 13.210038,11.8712337 13.0833333,11.8712337 C12.8039169,11.8712337 12.5505075,11.9801776 12.3610054,12.1566762 L8.89668568,10.2989216 L6.17134474,14.0225183 C6.0918966,14.0036473 6.00943544,13.9923882 5.92427845,13.9923882 C5.33848715,13.9923882 4.86354264,14.4673327 4.86354264,15.053124 C4.86354264,15.6387567 5.33848715,16.1137013 5.92427845,16.1137013 C6.50991118,16.1137013 6.98485568,15.6387567 6.98485568,15.053124 C6.98485568,14.8883603 6.94616238,14.7329527 6.8790834,14.5938789 L9.16294004,11.4743101 L12.026562,13.0098319 C12.0666825,13.5589914 12.5238661,13.9923882 13.0833333,13.9923882 C13.6689661,13.9923882 14.1439105,13.5176023 14.1439105,12.9318109 C14.1439105,12.8168411 14.1250396,12.7063114 14.0911037,12.6026007 L15.9544085,9.81826829 C15.9943705,9.82286707 16.0346496,9.82572151 16.0757216,9.82572151 C16.6615128,9.82572151 17.1362988,9.35093562 17.1362988,8.76514431 C17.1362988,8.179353 16.6615128,7.70456708 16.0757216,7.70456708 Z" id="Shape"></path>
  </symbol>

  <!-- TM ONE LOGOS -->
  <symbol id="tm1-logo-lg" viewBox="0 0 416 45">
    <g fill="#fff">
      <path d="M191 37.2L190.9 37.2C188.4 40.4 185.9 42.2 181.9 42.2 176.8 42.2 173.2 39.3 173.2 34.1 173.2 24.8 183.6 24.1 190.4 24.1L193 24.1C193.2 23.3 193.2 22.5 193.2 21.7 193.2 18.8 190.2 18 187.6 18 184.4 18 181.3 18.8 178.4 20.2L179.4 14.3C182.5 13.2 185.7 12.6 189 12.6 194.6 12.6 199.9 14.7 199.9 21.4 199.9 25.1 197.1 36.2 196.4 41.5L190.3 41.5 191 37.2M183.9 36.8C189.3 36.8 191 33 192.2 28.5L189.6 28.5C186.1 28.5 180.2 29.1 180.2 33.9 180.2 35.8 182 36.8 183.9 36.8"/>
      <path d="M1.6 13.3L6.9 13.3 8.1 7.5 16 4.9 14.2 13.3 20.7 13.3 19.6 18.6 13 18.6 10.4 31C10.2 31.6 10 32.6 10 33.7 10 35.4 11.2 36.5 12.8 36.5 14.1 36.5 15.4 36.2 16.4 35.8L15.1 41.5C13.9 41.8 12.4 42.2 11.2 42.2 6.2 42.2 2.7 40.2 2.7 34.8 2.7 32.6 3.2 30.4 3.7 28.2L5.7 18.6 0.5 18.6 1.6 13.3"/>
      <path d="M23.7 13.3L31 13.3 25 41.5 17.7 41.5 23.7 13.3 23.7 13.3ZM26.4 1.1L33.7 1.1 32.2 8.1 24.9 8.1 26.4 1.1 26.4 1.1Z"/>
      <path d="M53.1 19.7C51.7 18.8 49.8 18.3 47.8 18.3 41.9 18.3 38.7 23.8 38.7 29.1 38.7 32.8 39.9 36.5 44.9 36.5 46.7 36.5 48.9 36 50.8 35L50 40.9C47.8 42 45.4 42.2 43 42.2 35.7 42.2 31 37.3 31 30 31 20.1 37.5 12.6 47.6 12.6 50.3 12.6 52.9 13.1 54.9 13.7L53.1 19.7"/>
      <path d="M61.1 0.4L68.4 0.4 63.6 23.5 63.7 23.5 73.9 13.3 83.4 13.3 69.9 26.2 78.4 41.5 70.1 41.5 62.9 26.5 62.8 26.5 59.6 41.5 52.5 41.5 61.1 0.4"/>
      <path d="M109.7 13.3L115 13.3 116.3 7.5 124.1 4.9 122.3 13.3 128.9 13.3 127.7 18.6 121.2 18.6 118.5 31C118.3 31.6 118.2 32.6 118.2 33.7 118.2 35.4 119.3 36.5 121 36.5 122.3 36.5 123.6 36.2 124.5 35.8L123.2 41.5C122 41.8 120.6 42.2 119.3 42.2 114.4 42.2 110.9 40.2 110.9 34.8 110.9 32.6 111.3 30.4 111.8 28.2L113.9 18.6 108.6 18.6 109.7 13.3"/>
      <path d="M107.3 23.4C107.3 16.2 102.7 12.6 95.8 12.6 86.6 12.6 79.8 21.1 79.8 29.8 79.8 38.2 85.2 42.2 93.3 42.2 96.3 42.2 99.4 41.5 102.3 40.6L103.2 34.8C100.5 36 97.6 36.8 94.6 36.8 89.9 36.8 87.2 35.1 86.8 30.7L86.8 30.7C86.8 30.4 86.8 30.2 86.8 29.9 86.8 29.9 86.8 29.8 86.8 29.8 86.8 29.7 86.8 29.7 86.8 29.7L86.8 29.7C86.8 27.7 87.2 25.8 88 24.1 89.4 20.5 91.4 18 95.7 18 98.7 18 100.3 19.7 100.3 22.7 100.3 23.4 100.2 24 100.1 24.6L90.1 24.6C89.5 26.8 89.4 28.3 89.4 29.7L106.6 29.7C107 27.6 107.3 25.5 107.3 23.4"/>
      <path d="M132 16.4C132.2 15.3 132.5 14.2 132.6 13.3L139.4 13.3 138.8 17.1 138.9 17.1C140.9 14.2 144.1 12.6 147.5 12.6 150.8 12.6 154.3 14.6 154.6 18L154.8 18C156.6 14.3 160.7 12.6 164.6 12.6 168.8 12.6 172.4 16.1 172.4 20.3 172.4 22.9 171.8 25.7 171.2 28L168.2 41.5 160.9 41.5 163.9 27.8C164.2 26.1 164.8 23.4 164.8 21.7 164.8 19.6 163.2 18.3 161.4 18.3 156.3 18.3 155 24.2 154.1 28.1L151.2 41.5 143.9 41.5 146.8 27.8C147.2 26.1 147.8 23.4 147.8 21.7 147.8 19.6 146.2 18.3 144.3 18.3 139.4 18.3 138 24.3 137.1 28.1L134.2 41.5 126.9 41.5 132 16.4"/>
      <path d="M221.6 19C220.8 18.6 218.8 18 216.7 18 214.5 18 211.8 18.6 211.8 20.8 211.8 24.4 221.3 25.7 221.3 32.6 221.3 40 214.9 42.2 208.6 42.2 205.7 42.2 202.7 41.7 200.1 40.5L201.7 34.6C203.7 35.8 205.8 36.8 208.6 36.8 211.1 36.8 213.7 36 213.7 33.7 213.7 29.1 204.2 28.7 204.2 21.6 204.2 15 210.5 12.6 216.3 12.6 219 12.6 221.7 13.1 223.2 13.5L221.6 19"/>
      <path d="M226.2 13.3L231.5 13.3 232.8 7.5 240.6 4.9 238.8 13.3 245.4 13.3 244.2 18.6 237.7 18.6 235 31C234.9 31.6 234.7 32.6 234.7 33.7 234.7 35.4 235.8 36.5 237.5 36.5 238.8 36.5 240.1 36.2 241 35.8L239.8 41.5C238.5 41.8 237.1 42.2 235.8 42.2 230.9 42.2 227.4 40.2 227.4 34.8 227.4 32.6 227.8 30.4 228.3 28.2L230.4 18.6 225.1 18.6 226.2 13.3"/>
      <path d="M275.8 17.1C276 15.9 276.2 14.6 276.4 13.3L283.4 13.3 282.4 18.6 282.6 18.6C283.9 15.5 287.5 12.6 290.8 12.6 291.8 12.6 292.8 12.7 293.6 12.9L292.1 20.1C291.3 19.8 290.2 19.6 289.3 19.6 284.1 19.6 281.6 24.3 280.7 28.8L278.1 41.5 270.8 41.5 275.8 17.1"/>
      <path d="M270.7 23.4C270.7 16.2 266.1 12.6 259.2 12.6 250 12.6 243.2 21.1 243.2 29.8 243.2 38.2 248.7 42.2 256.8 42.2 259.8 42.2 262.9 41.5 265.7 40.6L266.6 34.8C263.9 36 261 36.8 258 36.8 253.3 36.8 250.6 35.1 250.3 30.7L250.3 30.7C250.2 30.4 250.2 30.2 250.2 29.9 250.2 29.9 250.2 29.8 250.2 29.8 250.2 29.7 250.2 29.7 250.2 29.7L250.2 29.7C250.3 27.7 250.7 25.8 251.4 24.1 252.8 20.5 254.8 18 259.1 18 262.2 18 263.7 19.7 263.7 22.7 263.7 23.4 263.7 24 263.6 24.6L253.6 24.6C252.9 26.8 252.8 28.3 252.8 29.7L270 29.7C270.4 27.6 270.7 25.5 270.7 23.4"/>
      <path d="M304 11.6C307.4 11.6 310.3 14.4 310.3 17.9 310.3 21.4 307.4 24.3 304 24.3 300.5 24.3 297.6 21.4 297.6 17.9 297.6 14.4 300.5 11.6 304 11.6L304 11.6ZM304 23.3C306.9 23.3 309.1 21 309.1 17.9 309.1 14.9 306.9 12.5 304 12.5 301 12.5 298.9 14.9 298.9 17.9 298.9 21 301 23.3 304 23.3L304 23.3ZM301.5 14.2L304.4 14.2C306.1 14.2 306.9 14.9 306.9 16.3 306.9 17.5 306.2 18.4 305 18.4L307.1 21.7 305.8 21.7 303.8 18.4 302.8 18.4 302.8 21.7 301.5 21.7 301.5 14.2 301.5 14.2ZM302.8 17.4L304.2 17.4C305.1 17.4 305.7 17.2 305.7 16.3 305.7 15.4 305 15.2 304.2 15.2L302.8 15.2 302.8 17.4 302.8 17.4Z"/>
    </g>
    <rect x="321.6" y="1.6" width="93.9" height="43" fill="#009CDE"/>
    <path d="M344.1 36C351.7 36 357.6 30.9 357.6 23.5 357.6 16.1 351.7 11 344.1 11 336.5 11 330.6 16.1 330.6 23.5 330.6 30.9 336.5 36 344.1 36L344.1 36ZM344.1 29.5C340.5 29.5 338.2 26.9 338.2 23.5 338.2 20.1 340.5 17.4 344.1 17.4 347.7 17.4 350 20.1 350 23.5 350 26.9 347.7 29.5 344.1 29.5L344.1 29.5Z" fill="#FFF"/>
    <path d="M354.8 17.1L348.7 17.1 351.8 11.5 360 11.5 360 36.9 354.8 36.9 354.8 17.1Z" fill="#009CDE"/>
    <path d="M382.8 35.5L382.8 11.5 375.3 11.5 375.3 22.9 366.8 11.5 359.1 11.5 359.1 35.5 366.6 35.5 366.6 23.3 375.6 35.5 382.8 35.5Z" fill="#fff"/>
    <path d="M405.7 35.5L405.7 29.2 394.5 29.2 394.5 26.6 405.5 26.6 405.5 20.2 394.5 20.2 394.5 17.8 405.7 17.8 405.7 11.5 387.1 11.5 387.1 35.5 405.7 35.5Z" fill="#fff"/>
  </symbol>

  <symbol id="tm1-logo-sm" viewBox="0 0 44 46">
      <path d="M10.1 24.8C9.8 24.9 9.5 25 9.3 25 9 25.1 8.8 25.1 8.6 25.1 8.4 25.2 8.2 25.2 8 25.2L7.3 25.2C6.5 25.2 5.7 25.1 5 24.9 4.2 24.7 3.6 24.4 3.1 24 2.6 23.6 2.2 23.1 1.9 22.5 1.6 21.9 1.5 21.2 1.5 20.4 1.5 20 1.5 19.6 1.6 19.2 1.6 18.9 1.7 18.5 1.7 18.1 1.8 17.8 1.9 17.4 2 17 2.1 16.7 2.2 16.3 2.3 15.9L3.8 9.6 -0.1 9.6 0.7 5.9 4.2 5.9 5 1.9 10.5 0 9.3 5.9 14 5.9 13.2 9.6 8.5 9.6 6.6 17.8C6.6 17.9 6.6 18 6.5 18.1 6.5 18.2 6.4 18.4 6.4 18.5 6.3 18.7 6.3 18.9 6.2 19.1 6.2 19.2 6.2 19.4 6.2 19.6 6.2 19.9 6.2 20.1 6.3 20.4 6.4 20.6 6.6 20.8 6.7 20.9 6.9 21.1 7.1 21.3 7.3 21.3 7.6 21.4 7.9 21.5 8.1 21.5L8.8 21.5C9 21.5 9.2 21.5 9.4 21.4 9.7 21.4 9.9 21.4 10.1 21.3 10.2 21.3 10.4 21.2 10.5 21.1L10.1 24.8ZM42.9 15.9L40.9 24.8 35.9 24.8 37.8 15.5C37.9 15.3 38 15 38.1 14.6 38.2 14.2 38.3 13.9 38.3 13.5 38.4 13.1 38.5 12.8 38.5 12.4 38.6 12.1 38.6 11.7 38.6 11.5 38.6 11.1 38.5 10.8 38.4 10.5 38.2 10.2 38.1 10 37.8 9.8 37.6 9.6 37.4 9.5 37.1 9.4 36.8 9.3 36.5 9.3 36.3 9.3 35.4 9.3 34.6 9.5 34.1 9.9 33.5 10.4 33.1 10.9 32.7 11.6 32.3 12.3 32 13 31.8 13.8 31.6 14.5 31.4 15.3 31.2 15.9L29.2 24.8 24.2 24.8 26.1 15.5C26.2 15.3 26.3 15 26.4 14.6 26.5 14.2 26.6 13.9 26.6 13.5 26.7 13.1 26.8 12.8 26.8 12.4 26.8 12.1 26.9 11.7 26.9 11.5 26.9 11.1 26.8 10.8 26.7 10.5 26.5 10.2 26.4 10 26.1 9.8 25.9 9.6 25.7 9.5 25.4 9.4 25.1 9.3 24.8 9.3 24.5 9.3 23.7 9.3 22.9 9.5 22.4 9.9 21.8 10.4 21.3 10.9 21 11.6 20.6 12.3 20.3 13 20.1 13.8 19.9 14.5 19.7 15.3 19.5 15.9L17.5 24.8 12.4 24.8 15.9 7.8C15.9 7.6 16 7.4 16 7.2 16 7 16.1 6.8 16.1 6.7 16.2 6.5 16.2 6.3 16.3 6.1 16.3 5.9 16.3 5.7 16.3 5.6L21 5.6 20.6 8.5C21 8 21.4 7.6 21.9 7.3 22.3 6.9 22.8 6.6 23.3 6.3 23.8 6.1 24.3 5.9 24.8 5.8 25.3 5.6 25.9 5.6 26.5 5.6 27.1 5.6 27.6 5.6 28.2 5.8 28.8 6 29.3 6.2 29.8 6.6 30.2 6.9 30.6 7.3 30.9 7.7 31.3 8.2 31.5 8.7 31.6 9.3 31.8 8.6 32.2 8 32.7 7.6 33.2 7.1 33.7 6.7 34.3 6.4 34.9 6.1 35.5 5.9 36.2 5.8 36.8 5.6 37.5 5.6 38.2 5.6 38.9 5.6 39.5 5.7 40.2 5.9 40.9 6.2 41.5 6.6 42 7 42.5 7.5 42.9 8 43.2 8.7 43.5 9.3 43.7 10 43.7 10.7 43.7 11.1 43.6 11.5 43.6 12 43.5 12.4 43.5 12.8 43.4 13.3 43.3 13.8 43.3 14.2 43.2 14.7 43.1 15.1 43 15.5 42.9 15.9Z" fill="#FFF"/>
        <rect x="2" y="28" width="40" height="18" fill="#009CDE"/>
          <path d="M11.8 42.5C15 42.5 17.4 40.4 17.4 37.2 17.4 34.1 15 31.9 11.8 31.9 8.7 31.9 6.2 34.1 6.2 37.2 6.2 40.4 8.7 42.5 11.8 42.5L11.8 42.5ZM11.8 39.8C10.3 39.8 9.4 38.6 9.4 37.2 9.4 35.8 10.3 34.6 11.8 34.6 13.3 34.6 14.3 35.8 14.3 37.2 14.3 38.6 13.3 39.8 11.8 39.8L11.8 39.8Z" fill="#FFF"/>
          <path d="M16.2 34.5L13.6 34.5 14.9 32.1 18.3 32.1 18.3 42.9 16.2 42.9 16.2 34.5Z" fill="#009CDE"/>
          <path d="M27.8 42.3L27.8 32.1 24.7 32.1 24.7 37 21.1 32.1 18 32.1 18 42.3 21.1 42.3 21.1 37.2 24.8 42.3 27.8 42.3Z" fill="#FFF"/>
          <path d="M37.2 42.3L37.2 39.6 32.6 39.6 32.6 38.5 37.1 38.5 37.1 35.8 32.6 35.8 32.6 34.8 37.2 34.8 37.2 32.1 29.5 32.1 29.5 38.9 29.5 42.3 37.2 42.3Z" fill="#FFF"/>
  </symbol>
</svg>
